<?xml version="1.0" encoding="UTF-8" standalone="no"?>
<!-- Created with Inkscape (http://www.inkscape.org/) -->

<svg
   version="1.1"
   id="svg1"
   width="1280"
   height="588"
   viewBox="0 0 1280 588"
   sodipodi:docname="foto.jpg"
   xmlns:inkscape="http://www.inkscape.org/namespaces/inkscape"
   xmlns:sodipodi="http://sodipodi.sourceforge.net/DTD/sodipodi-0.dtd"
   xmlns="http://www.w3.org/2000/svg"
   xmlns:svg="http://www.w3.org/2000/svg">
  <defs
     id="defs1">
    <rect
       x="434.08875"
       y="63.78363"
       width="409.03403"
       height="160.32042"
       id="rect56" />
  </defs>
  <sodipodi:namedview
     id="namedview1"
     pagecolor="#ffffff"
     bordercolor="#000000"
     borderopacity="0.25"
     inkscape:showpageshadow="2"
     inkscape:pageopacity="0.0"
     inkscape:pagecheckerboard="0"
     inkscape:deskcolor="#d1d1d1" />
  <g
     inkscape:groupmode="layer"
     id="layer1"
     inkscape:label="Dibujo">
    <path
       style="font-variation-settings:'wght' 900;display:inline;fill:#800000;stroke:#2d3748;stroke-width:0"
       d="m 12.554644,53.689272 11.559486,-2.847189 30.216017,-6.604313 41.862234,-7.417098 43.318669,-7.072377 21.13051,-2.741498 30.71974,-2.763688 47.13906,-3.763618 36.43745,-2.91061 47.49631,-2.888464 33.59545,-1.091152 56.53965,-2.895101 48.08225,0.123842 25.61998,1.075084 53.75184,-0.507259 72.8885,1.525683 41.42567,1.15512 30.44939,1.402032 60.11895,2.663244 66.58111,2.725419 37.91454,2.748689 50.8265,5.440336 56.95732,7.04335 76.64703,13.199545 111.4907,25.299079 63.0385,18.31582 27.9253,9.836182 30.6652,13.06899 5.3575,1.86534 2.5394,1.22978 1.8179,2.00044 1.1251,0.76407 0.5914,1.99936 0.017,1.58542 -1.3859,427.41591 -331.19259,6.10366 -85.57376,3.18913 -71.62157,-2.62008 -12.7985,-0.16175 L 774.65981,123.89067 521.25305,116.92629 511.3677,555.23047 203.18466,550.77105 50.57576,544.79573 3.9948103,541.65528 2.4794829,60.133631 7.3887277,56.250353 Z"
       id="path1"
       inkscape:label="construccion" />
    <g
       id="g13"
       inkscape:label="g-2"
       style="display:inline;fill:#ffffff">
      <path
         style="font-variation-settings:'wght' 900;fill:#ffffff;stroke:#2d3748;stroke-width:0"
         d="m 144.52157,128.03411 72.61686,-6.06169 -5.32287,109.29923 -70.7922,4.335 z"
         id="path10" />
      <path
         style="font-variation-settings:'wght' 900;fill:#ffffff;stroke:#2d3748;stroke-width:0"
         d="m 150.47106,131.49523 65.12823,-5.18399 -7.4369,103.19685 -63.04833,3.99474 z"
         id="path9" />
      <path
         style="font-variation-settings:'wght' 900;fill:#ffffff;stroke:#2d3748;stroke-width:0"
         d="m 144.48551,157.32453 70.32457,-2.66239 -0.0575,3.96516 -70.36648,3.22737 z"
         id="path7"
         sodipodi:nodetypes="ccccc" />
      <path
         style="font-variation-settings:'wght' 900;fill:#ffffff;stroke:#2d3748;stroke-width:0"
         d="m 176.2114,160.23803 -1.37757,71.7224 4.32088,-0.13496 0.6152,-71.42957 z"
         id="path8"
         sodipodi:nodetypes="ccccc" />
    </g>
    <g
       id="g14"
       inkscape:label="g-3"
       style="display:inline;fill:#ffffff">
      <path
         style="font-variation-settings:'wght' 900;fill:#ffffff;stroke:#2d3748;stroke-width:0"
         d="m 21.461435,343.53907 60.830232,-1.66943 -7.195229,88.89073 -57.522626,1.21751 z"
         id="path14" />
      <path
         style="font-variation-settings:'wght' 900;fill:#ffffff;stroke:#2d3748;stroke-width:0"
         d="m 27.618597,346.87574 51.543698,-1.83262 -6.590483,83.03254 -51.614651,0.29241 z"
         id="path13"
         sodipodi:nodetypes="ccccc" />
      <path
         style="font-variation-settings:'wght' 900;fill:#ffffff;stroke:#2d3748;stroke-width:0"
         d="m 24.520572,378.68193 52.745141,-0.80843 -0.02064,3.78443 -53.713381,0.75735 z"
         id="path11" />
      <path
         style="font-variation-settings:'wght' 900;fill:#ffffff;stroke:#2d3748;stroke-width:0"
         d="m 50.080015,380.24337 -2.387783,49.7038 3.174042,-0.0714 2.397139,-49.61693 z"
         id="path12"
         sodipodi:nodetypes="ccccc" />
    </g>
    <g
       id="g6"
       inkscape:label="g-1"
       style="display:inline;fill:#ffffff">
      <path
         style="font-variation-settings:'wght' 900;fill:#ffffff;stroke:#2d3748;stroke-width:0"
         d="m 34.404278,241.79872 54.389286,-2.09734 7.773679,-106.85249 -57.504762,8.15337 z"
         id="path6"
         inkscape:label="v-m" />
      <path
         style="font-variation-settings:'wght' 900;display:inline;fill:#ffffff;stroke:#2d3748;stroke-width:0"
         d="m 37.522688,239.27039 48.426621,-2.46652 8.838092,-99.20173 -49.575909,6.30853 z"
         id="path3"
         inkscape:label="v-f" />
      <path
         style="font-variation-settings:'wght' 900;display:inline;fill:#ffffff;stroke:#2d3748;stroke-width:0"
         d="m 42.587767,174.07167 49.828419,-3.37093 0.112735,2.39329 -50.653144,4.14791 z"
         id="path4"
         inkscape:label="v-3" />
      <path
         style="font-variation-settings:'wght' 900;display:inline;fill:#ffffff;stroke:#2d3748;stroke-width:0"
         d="m 70.048459,175.05324 -3.778861,63.31355 -2.874312,0.0485 3.87795,-63.25502 z"
         id="path5"
         inkscape:label="v-4" />
    </g>
    <g
       id="g18"
       inkscape:label="g-4"
       style="display:inline;fill:#ffffff">
      <path
         style="font-variation-settings:'wght' 900;display:inline;fill:#ffffff;stroke:#2d3748;stroke-width:0"
         d="m 130.19973,430.83129 68.89681,-0.0815 7.27606,-90.72127 -74.90459,1.4212 -5.35267,89.14668 z"
         id="path17"
         sodipodi:nodetypes="cccccc" />
      <path
         style="font-variation-settings:'wght' 900;fill:#ffffff;stroke:#2d3748;stroke-width:0"
         d="m 135.8593,345.79883 65.34444,-2.87861 -5.79044,85.77468 -65.18062,-0.93081 z"
         id="path18"
         sodipodi:nodetypes="ccccc" />
      <path
         style="font-variation-settings:'wght' 900;display:inline;fill:#ffffff;stroke:#2d3748;stroke-width:0"
         d="m 165.19106,382.21495 -3.20384,46.25872 2.91428,0.43881 4.04537,-46.80644 z"
         id="path16"
         sodipodi:nodetypes="ccccc" />
      <path
         style="font-variation-settings:'wght' 900;display:inline;fill:#ffffff;stroke:#2d3748;stroke-width:0"
         d="m 132.13874,379.77846 68.61097,-0.60378 -0.13609,3.77571 -67.60147,-0.31167 z"
         id="path15"
         sodipodi:nodetypes="ccccc" />
    </g>
    <g
       id="g22"
       inkscape:label="g-5"
       transform="translate(178.71095,-9.0102052)"
       style="display:inline;fill:#ffffff">
      <path
         style="font-variation-settings:'wght' 900;fill:#ffffff;stroke:#2d3748;stroke-width:0"
         d="m 142.41552,126.23819 78.14426,-2.39082 -7.53228,112.80814 -74.30604,2.51424 z"
         id="path19"
         sodipodi:nodetypes="ccccc" />
      <path
         style="font-variation-settings:'wght' 900;fill:#ffffff;stroke:#2d3748;stroke-width:0"
         d="m 146.5006,130.83987 69.78012,-2.9167 -6.73494,105.38262 -66.73897,1.57727 z"
         id="path20"
         sodipodi:nodetypes="ccccc" />
      <path
         style="font-variation-settings:'wght' 900;fill:#ffffff;stroke:#2d3748;stroke-width:0"
         d="m 144.48551,157.32453 70.32457,-2.66239 -0.0575,3.96516 -70.36648,3.22737 z"
         id="path21"
         sodipodi:nodetypes="ccccc" />
      <path
         style="font-variation-settings:'wght' 900;fill:#ffffff;stroke:#2d3748;stroke-width:0"
         d="m 176.2114,160.23803 -1.36638,74.43693 4.49596,-0.3324 0.42893,-73.94666 z"
         id="path22"
         sodipodi:nodetypes="ccccc" />
    </g>
    <g
       id="g29"
       inkscape:label="g-4"
       transform="matrix(1.1565464,0,0,1.1278903,161.55958,-43.225631)"
       style="display:inline;fill:#ffffff">
      <path
         style="font-variation-settings:'wght' 900;display:inline;fill:#ffffff;stroke:#2d3748;stroke-width:0"
         d="m 130.19973,430.83129 68.89681,-0.0815 7.27606,-90.72127 -78.04525,1.4212 -2.21201,89.14668 z"
         id="path26"
         sodipodi:nodetypes="cccccc" />
      <path
         style="font-variation-settings:'wght' 900;fill:#ffffff;stroke:#2d3748;stroke-width:0"
         d="m 135.8593,345.79883 65.34444,-2.87861 -5.79044,85.77468 -65.18062,-0.93081 z"
         id="path27"
         sodipodi:nodetypes="ccccc" />
      <path
         style="font-variation-settings:'wght' 900;display:inline;fill:#ffffff;stroke:#2d3748;stroke-width:0"
         d="m 165.19106,382.21495 -3.20384,46.25872 2.91428,0.43881 4.04537,-46.80644 z"
         id="path28"
         sodipodi:nodetypes="ccccc" />
      <path
         style="font-variation-settings:'wght' 900;display:inline;fill:#ffffff;stroke:#2d3748;stroke-width:0"
         d="m 132.13874,379.77846 68.61097,-0.60378 -0.13609,3.77571 -67.60147,-0.31167 z"
         id="path29"
         sodipodi:nodetypes="ccccc" />
    </g>
    <g
       id="g33"
       inkscape:label="g-6"
       style="display:inline;fill:#ffffff">
      <path
         style="font-variation-settings:'wght' 900;display:inline;fill:#ffffff;stroke:#2d3748;stroke-width:0"
         d="m 808.36291,351.66746 223.33949,5.92274 2.1414,45.39944 -226.74896,-5.81766 z"
         id="path30" />
      <path
         style="font-variation-settings:'wght' 900;fill:#ffffff;stroke:#2d3748;stroke-width:0"
         d="m 1060.9309,402.37133 c 4.8544,0 148.9523,5.92236 148.9523,5.92236 l 2.383,-39.12489 -153.3789,-8.65076 z"
         id="path31" />
      <path
         style="font-variation-settings:'wght' 900;fill:#ffffff;stroke:#2d3748;stroke-width:0"
         d="m 1053.3513,193.62603 151.4732,22.67516 -1.0289,-37.68971 -152.0622,-28.40299 z"
         id="path32" />
      <path
         style="font-variation-settings:'wght' 900;fill:#ffffff;stroke:#2d3748;stroke-width:0"
         d="m 806.90866,125.48271 218.79184,19.37807 1.795,46.78931 -218.94031,-20.66849 z"
         id="path33" />
    </g>
    <path
       style="font-variation-settings:'wght' 900;display:inline;fill:#000000;stroke:#2d3748;stroke-width:0"
       d="m 523.82582,116.6185 251.04493,6.22277 1.79509,436.71577 -14.45553,-0.70744 4.97095,-397.20573 -241.48988,-7.95632 -14.09694,402.66529 -3.64672,-0.12807 12.43508,-439.5432 z"
       id="path34"
       sodipodi:nodetypes="cccccccccc" />
    <text
       xml:space="preserve"
       id="text56"
       style="font-size:24px;line-height:1.7;font-family:SourceCodeVF;-inkscape-font-specification:'SourceCodeVF, @wght=900';font-variation-settings:'wght' 900;text-align:center;white-space:pre;shape-inside:url(#rect56);display:inline;fill:#ffffff;stroke:#2d3748;stroke-width:0"
       transform="rotate(1.601797,2170.6291,367.47877)"><tspan
         x="437.00534"
         y="90.183204"
         id="tspan1">FACULTAD DE CIENCIAS BÁSICAS </tspan><tspan
         x="473.00536"
         y="130.98321"
         id="tspan2">INGENIERÍA Y TECNOLOGÍA</tspan></text>
    <g
       id="g44"
       inkscape:label="p"
       style="fill:#000000">
      <path
         style="font-variation-settings:'wght' 900;fill:#000000;stroke:#2d3748;stroke-width:0"
         d="m 533.38156,159.67987 225.30105,6.32053 -0.29555,392.24606 9.75267,0.93283 -0.34751,-398.42995 -242.38007,-8.57959 -14.23339,404.27861 8.75461,-0.55664 z"
         id="path35" />
      <path
         style="font-variation-settings:'wght' 900;fill:#000000;stroke:#2d3748;stroke-width:0"
         d="m 585.52817,161.0882 -8.43401,388.56048 7.64282,1.47099 7.49095,-390.49091 z"
         id="path36"
         sodipodi:nodetypes="ccccc" />
      <path
         style="font-variation-settings:'wght' 900;fill:#000000;stroke:#2d3748;stroke-width:0"
         d="m 642.79932,161.7809 -8.43401,388.56048 7.64282,1.47099 7.49095,-390.49091 z"
         id="path37"
         sodipodi:nodetypes="ccccc" />
      <path
         style="font-variation-settings:'wght' 900;fill:#000000;stroke:#2d3748;stroke-width:0"
         d="m 700.14947,163.55127 -8.43401,388.56048 7.64282,1.47099 7.49095,-390.49091 z"
         id="path38"
         sodipodi:nodetypes="ccccc" />
      <path
         style="font-variation-settings:'wght' 900;fill:#000000;stroke:#2d3748;stroke-width:0"
         d="m 529.41369,253.94647 230.64851,4.24781 -0.4899,3.89943 -230.52594,-4.50897 z"
         id="path39" />
      <path
         style="font-variation-settings:'wght' 900;fill:#000000;stroke:#2d3748;stroke-width:0"
         d="m 522.17361,368.19487 237.68679,4.63354 -0.23407,3.90237 -237.82005,-4.89764 z"
         id="path40"
         sodipodi:nodetypes="ccccc" />
      <path
         style="font-variation-settings:'wght' 900;fill:#000000;stroke:#2d3748;stroke-width:0"
         d="m 521.37567,473.93422 117.00295,-0.39658 -0.11481,4.38285 -116.6138,-0.26113 z"
         id="path41" />
      <path
         style="font-variation-settings:'wght' 900;fill:#000000;stroke:#2d3748;stroke-width:0"
         d="m 699.62138,475.38085 59.17747,0.0558 0.24561,4.52747 -59.72694,-0.0763 z"
         id="path42" />
      <path
         style="font-variation-settings:'wght' 900;fill:#000000;stroke:#2d3748;stroke-width:0"
         d="m 518.73132,548.83207 123.55434,0.36271 -0.39395,7.21019 -123.46918,-0.52859 z"
         id="path43" />
      <path
         style="font-variation-settings:'wght' 900;fill:#000000;stroke:#2d3748;stroke-width:0"
         d="m 691.84838,548.33917 68.84505,2.83992 0.62322,7.60848 -69.85015,-1.31125 z"
         id="path44"
         sodipodi:nodetypes="ccccc" />
    </g>
  </g>
</svg>
